<?xml version="1.0" encoding="utf-8"?>
<svg xmlns="http://www.w3.org/2000/svg" xmlns:xlink="http://www.w3.org/1999/xlink" version= "1.1" width="136px" height="83px" viewBox="292 683 136 83">
<g id="layer1">
<g style="fill:url(#grad0); fill-opacity:1.0; stroke-linejoin: miter">
<path d="M388.82355,715.1397L388.31958,719.025Q385.72357,730.7004,376.23117,737.20917Q366.6765,743.7083,354.4037,741.6085Q342.72754,739.01263,336.21823,729.5209Q334.13416,726.4539,332.88132,722.9118L331.86838,719.2873Q331.07935,715.5622,331.31436,711.58014Q332.37894,699.3812,340.99478,691.7703Q349.61063,684.1595,361.8486,684.6074Q374.04843,685.67206,381.65994,694.28735Q389.27142,702.90265,388.82355,715.1397"/>
</g>
<g style="fill:rgb(237,191,154); fill-opacity:1.0; stroke-linejoin: miter">
<path d="M393.65012,697.4922L393.65012,697.4927Q393.65012,697.4939,393.65012,697.4922"/>
</g>
<g style="fill:rgb(0,0,0); fill-opacity:1.0; stroke-linejoin: miter">
<path d="M389.08325,713.2926L389.08325,713.2926C389.08325,729.3512,376.06522,742.36914,360.00674,742.36914L360.00674,742.36914C343.94827,742.36914,330.93024,729.3512,330.93024,713.2926L330.93024,713.2926C330.93024,697.234,343.94827,684.21606,360.00674,684.21606L360.00674,684.21606C376.06522,684.21606,389.08325,697.234,389.08325,713.2926L389.08325,713.2926 M388.70007,713.2926L388.70007,713.2926C388.70007,697.4456,375.85364,684.59924,360.00674,684.59924L360.00674,684.59924C344.15985,684.59924,331.31342,697.4456,331.31342,713.2926L331.31342,713.2926C331.31342,729.1396,344.15985,741.98596,360.00674,741.98596L360.00674,741.98596C375.85364,741.98596,388.70007,729.1396,388.70007,713.2926 Z"/>
</g>
<g style="fill:rgb(254,254,254); fill-opacity:1.0; stroke-linejoin: miter">
<path d="M360.51508,738.60126L356.20166,738.6028L356.22757,719.15125L342.08835,694.49335L349.32285,694.2679L360.31232,713.45325L360.51508,738.60126"/>
</g>
<g style="fill:rgb(254,254,254); fill-opacity:1.0; stroke-linejoin: miter">
<path d="M359.28738,738.60126L363.6008,738.6028L363.5749,719.15125L377.71414,694.49335L370.47964,694.2679L359.49017,713.45325L359.28738,738.60126"/>
</g>
<g style="fill:rgb(254,254,254); fill-opacity:1.0; stroke-linejoin: miter">
</g>
<g style="fill:rgb(254,254,254); fill-opacity:1.0; stroke-linejoin: miter">
</g>
<g style="fill:rgb(136,82,49); fill-opacity:1.0; stroke-linejoin: miter">
</g>
<g style="fill:rgb(136,82,49); fill-opacity:1.0; stroke-linejoin: miter">
</g>
<g style="fill:rgb(136,82,49); fill-opacity:1.0; stroke-linejoin: miter">
</g>
<g style="fill:rgb(136,82,49); fill-opacity:1.0; stroke-linejoin: miter">
</g>
<g style="fill:rgb(136,82,49); fill-opacity:1.0; stroke-linejoin: miter">
</g>
<g style="fill:rgb(136,82,49); fill-opacity:1.0; stroke-linejoin: miter">
</g>
<g style="fill:rgb(136,82,49); fill-opacity:1.0; stroke-linejoin: miter">
</g>
<g style="fill:rgb(0,0,0); fill-opacity:1.0; stroke-linejoin: miter">
<path d="M375.96854,707.1456L375.96854,707.1461Q375.96854,707.1473,375.96854,707.1456"/>
</g>
<g style="fill:rgb(0,0,0); fill-opacity:1.0; stroke-linejoin: miter">
<path d="M343.83395,707.1456L343.83395,707.1461Q343.83395,707.1473,343.83395,707.1456"/>
</g>
<g style="fill:url(#grad1); fill-opacity:1.0; stroke-linejoin: miter">
<path d="M359.90015,707.7597L359.32254,707.7931Q354.75815,707.9923,354.63144,708.0693Q353.5156,708.1605,352.09778,708.67816Q350.84082,709.18646,349.67856,710.0198Q349.3201,710.2617,348.56366,710.86145Q346.38626,712.7587,346.12622,712.86035Q345.33804,713.38165,344.29514,713.7082Q341.64774,714.47003,339.55234,713.6233Q337.24252,712.5221,336.10876,710.51025Q335.15582,708.34424,335.50116,706.10034Q335.74792,704.0016,337.5369,702.2847Q339.3131,700.6637,341.481,700.53235Q343.22565,700.3824,345.6018,701.4988Q346.1452,701.7484,347.3224,702.5477L350.6488,705.0329Q351.48453,705.6054,352.57806,705.9635Q354.14374,706.5823,359.90173,706.5251L359.90015,707.7597"/>
</g>
<g style="fill:url(#grad1); fill-opacity:1.0; stroke-linejoin: miter">
<path d="M359.90234,707.7597L360.47995,707.7931Q365.04434,707.9923,365.17105,708.0693Q366.2869,708.1605,367.7047,708.67816Q368.96167,709.18646,370.12393,710.0198Q370.4824,710.2617,371.23883,710.86145Q373.41623,712.7587,373.67627,712.86035Q374.46445,713.38165,375.50735,713.7082Q378.15475,714.47003,380.25015,713.62335Q382.55997,712.52216,383.69373,710.5103Q384.64667,708.3443,384.30133,706.1004Q384.05457,704.00165,382.2656,702.2848Q380.48938,700.66376,378.3215,700.53235Q376.57684,700.3824,374.20068,701.4988Q373.6573,701.7484,372.4801,702.5477L369.1537,705.0329Q368.31796,705.6054,367.22443,705.9635Q365.65875,706.5823,359.90076,706.5251L359.90234,707.7597"/>
</g>
<g style="fill:rgb(0,0,0); fill-opacity:1.0; stroke-linejoin: miter">
</g>
<g style="fill:rgb(0,0,0); fill-opacity:1.0; stroke-linejoin: miter">
</g>
<g style="fill:url(#grad1); fill-opacity:1.0; stroke-linejoin: miter">
<path d="M359.90106,706.83545L359.8993,707.2976L359.89752,707.7599L359.90015,707.7597Q359.9007,707.34985,359.9012,706.94006L359.90106,706.83545 Z"/>
</g>
<g style="fill:url(#grad2); fill-opacity:1.0; stroke-linejoin: miter">
<path d="M377.8995,700.51447L377.53702,700.5266Q376.19916,700.55475,373.9278,701.63696Q373.18488,702.05963,372.47998,702.5478L368.9647,705.1574Q368.19635,705.64514,367.2243,705.9635Q365.53256,706.5918,359.90247,706.5252L359.90225,707.7597Q364.92218,707.9977,364.8955,708.02905Q366.30054,708.17065,367.39325,708.5684Q368.43527,708.90283,369.8644,709.83856Q370.9005,710.507,373.2897,712.5932Q373.4295,712.7417,374.22992,713.18634Q375.91772,714.0765,378.1684,714.0634Q379.26968,714.0195,380.25012,713.6232Q381.79,712.88916,382.80722,711.75024Q383.50616,711.003,383.88947,710.02795Q384.42853,708.57825,384.39062,707.0938Q384.37082,705.5753,383.77728,704.3103Q382.94754,702.8359,382.26556,702.2847Q380.2598,700.48706,377.8995,700.51447 Z"/>
</g>
<g style="fill:rgb(0,0,0); fill-opacity:1.0; stroke-linejoin: miter">
</g>
<g style="fill:rgb(0,0,0); fill-opacity:1.0; stroke-linejoin: miter">
</g>
<g style="fill:rgb(0,0,0); fill-opacity:1.0; stroke-linejoin: miter">
</g>
<g style="fill:rgb(0,0,0); fill-opacity:1.0; stroke-linejoin: miter">
</g>
<g style="fill:rgb(0,0,0); fill-opacity:1.0; stroke-linejoin: miter">
</g>
<g style="fill:rgb(0,0,0); fill-opacity:1.0; stroke-linejoin: miter">
</g>
<g>
<g style="fill:rgb(254,254,254); fill-opacity:1.0; stroke-linejoin: miter">
<path d="M403.37564,753.34717L409.09793,753.37427Q409.536,753.37634,409.94644,753.43304Q410.3295,753.4896,410.65717,753.68286Q410.95755,753.8486,411.14764,754.17804Q411.33774,754.50745,411.33527,755.0277Q411.32983,756.1776,410.69855,756.5032Q410.10437,756.79675,409.11386,756.79675Q409.09784,756.79675,409.08173,756.7967L407.82227,756.7908Q407.76968,756.7905,407.7173,756.7905Q406.54108,756.7905,405.4396,756.9164Q404.289,757.0478,403.35553,757.591L403.37564,753.34717 Z M329.3623,754.3929L332.10272,759.66284L331.7194,759.661Q331.6667,759.66077,331.61444,759.66077Q329.4678,759.66077,328.07587,760.08185Q326.65005,760.5131,325.96387,760.86584L329.3623,754.3929 Z M387.87222,754.6701L390.61264,759.94006L390.22934,759.93823Q390.17664,759.938,390.1244,759.938Q387.97772,759.938,386.58582,760.3591Q385.15997,760.7904,384.47382,761.14307L387.87222,754.6701 Z M304.74075,750.05963L310.6694,758.5482L310.64227,764.2705L313.435,764.28375L313.4621,758.5614L319.3614,750.12897L315.96634,750.11285L312.05197,755.6798L308.30008,750.07654L304.74075,750.05963 Z M327.00183,749.83655L327.9243,751.62067L321.07385,764.31995L324.03085,764.3339L324.11377,764.17004Q324.27908,763.9518,325.02,763.59937Q325.73343,763.2742,326.8028,762.9507Q327.84464,762.6545,329.1325,762.4415Q330.3838,762.2346,331.65994,762.2346Q331.69727,762.2346,331.7346,762.2348L333.43213,762.24286L334.54456,764.3838L337.63843,764.39844L330.04095,749.85095L327.00183,749.83655 Z M356.92603,750.30695L361.75977,764.5127L365.51074,764.5305L366.98843,758.92456L368.74152,764.5458L372.54727,764.56384L377.59753,750.40485L374.5858,750.3906L370.73074,760.7768L367.54926,750.35724L364.34586,750.3421L365.4783,754.04376L363.5847,760.7429L359.96515,750.32135L356.92603,750.30695 Z M385.51175,750.11383L386.43423,751.8979L379.5838,764.59717L382.54077,764.6112L382.6237,764.44727Q382.789,764.22906,383.52994,763.8766Q384.24335,763.55145,385.3127,763.2279Q386.35455,762.9317,387.64243,762.71875Q388.8937,762.51184,390.16986,762.51184Q390.20718,762.51184,390.2445,762.512L391.94205,762.5201L393.0545,764.661L396.14838,764.67566L388.55087,750.12823L385.51175,750.11383 Z M400.59628,750.51385L400.52908,764.6964L403.32178,764.70966L403.34216,760.4111Q403.80878,760.1669,404.19287,760.0044Q404.57697,759.8419,405.0702,759.76215Q405.536,759.6822,406.1934,759.63055Q406.72156,759.6101,407.49994,759.6101Q407.64978,759.6101,407.8089,759.61084L409.06836,759.6168Q409.09058,759.61694,409.11273,759.61694Q411.49045,759.61694,412.85257,758.40265Q414.1999,757.2043,414.21,755.06866Q414.21478,754.05566,413.86285,753.2052Q413.5382,752.38226,412.93872,751.77704Q412.3391,751.1992,411.4645,750.8665Q410.6172,750.56134,409.60413,750.5565L400.59628,750.51385 Z M346.83618,749.79376Q345.68274,749.79376,344.63342,750.0844Q343.5642,750.3805,342.76746,750.9517Q341.97086,751.49554,341.47427,752.28723Q341.00507,753.07904,341.00052,754.0373Q340.99506,755.18726,341.42926,756.0107Q341.86356,756.80676,342.6551,757.33075Q343.41937,757.8272,344.48615,758.05133Q345.55292,758.2754,346.83975,758.2815Q349.0575,758.292,350.15125,758.5984Q351.21762,758.9046,351.21307,759.8629Q351.2076,761.0128,350.0002,761.5821Q348.8123,762.14215,346.88492,762.14215Q346.8533,762.14215,346.82147,762.142Q345.86316,762.13745,345.17987,761.8878Q344.4964,761.6655,343.97787,761.3071Q343.48676,760.94885,343.10538,760.5364Q342.75137,760.12396,342.42438,759.7939L340.38858,761.8377Q341.55927,763.2397,343.25293,764.0691Q344.9193,764.87103,346.80847,764.87994Q346.84113,764.8801,346.87366,764.8801Q348.3429,764.8801,349.63013,764.56476Q350.94577,764.26984,351.93442,763.6448Q352.89554,763.04694,353.4477,762.09125Q353.9997,761.16296,354.00577,759.8761Q354.0098,759.02734,353.76715,758.2322Q353.52448,757.437,352.7881,756.8312Q352.0517,756.22534,350.65704,755.86273Q349.28976,755.50037,347.04465,755.4897Q346.0042,755.4848,345.375,755.37225Q344.7732,755.2599,344.44553,755.0667Q344.14514,754.901,344.03693,754.62665Q343.95593,754.3799,343.95752,754.05133Q343.95892,753.7501,344.23416,753.45026Q344.48187,753.1776,344.8936,752.9606Q345.3052,752.7708,345.82605,752.6364Q346.3084,752.5316,346.81644,752.5316Q346.828,752.5316,346.8396,752.5317Q348.0717,752.53754,349.16556,752.8165Q350.23206,753.09534,351.0502,753.78375L352.94977,751.60236Q351.3942,750.52716,349.9174,750.1642Q348.44058,749.8013,346.87997,749.7939Q346.85806,749.79376,346.83618,749.79376 Z"/>
</g>
</g>
<g style="fill:rgb(64,54,39); fill-opacity:1.0; stroke-linejoin: miter">
</g>
<g style="fill:rgb(64,54,39); fill-opacity:1.0; stroke-linejoin: miter">
</g>
</g>
<defs>
<radialGradient id="grad2" gradientUnits="userSpaceOnUse" cx="378.38507" cy="707.02246" r="35.945007" >
<stop offset="0.0%" style="stop-color:rgb(74,174,77); stop-opacity:1.0" />
<stop offset="29.856115%" style="stop-color:rgb(0,150,135); stop-opacity:1.0" />
<stop offset="52.110355%" style="stop-color:rgb(103,57,182); stop-opacity:1.0" />
<stop offset="70.863304%" style="stop-color:rgb(139,195,73); stop-opacity:1.0" />
<stop offset="100.0%" style="stop-color:rgb(0,150,135); stop-opacity:1.0" />
</radialGradient>
<radialGradient id="grad1" gradientUnits="userSpaceOnUse" cx="341.25674" cy="707.42615" r="35.1929" >
<stop offset="0.0%" style="stop-color:rgb(32,150,241); stop-opacity:1.0" />
<stop offset="29.856115%" style="stop-color:rgb(63,80,181); stop-opacity:1.0" />
<stop offset="52.110355%" style="stop-color:rgb(103,57,182); stop-opacity:1.0" />
<stop offset="70.863304%" style="stop-color:rgb(139,195,73); stop-opacity:1.0" />
<stop offset="100.0%" style="stop-color:rgb(0,150,135); stop-opacity:1.0" />
</radialGradient>
<radialGradient id="grad0" gradientUnits="userSpaceOnUse" cx="337.5305" cy="727.92975" r="122.26756" >
<stop offset="0.0%" style="stop-color:rgb(216,207,83); stop-opacity:1.0" />
<stop offset="29.856115%" style="stop-color:rgb(194,151,83); stop-opacity:1.0" />
<stop offset="52.110355%" style="stop-color:rgb(136,82,49); stop-opacity:1.0" />
<stop offset="70.863304%" style="stop-color:rgb(196,142,81); stop-opacity:1.0" />
<stop offset="100.0%" style="stop-color:rgb(135,79,48); stop-opacity:1.0" />
</radialGradient>
</defs>
</svg>