<?xml version="1.0" encoding="utf-8"?>
<svg xmlns="http://www.w3.org/2000/svg" xmlns:xlink="http://www.w3.org/1999/xlink" version= "1.1" width="88px" height="75px" viewBox="316 687 88 75">
<g id="layer1">
<g style="fill:url(#grad0); fill-opacity:1.0; stroke-linejoin: miter">
<path d="M383.23666,712.0255L382.8313,715.1508Q380.74313,724.5423,373.10764,729.7779Q365.42203,735.0058,355.55,733.3168Q346.15787,731.2287,340.92184,723.5937Q339.24542,721.1267,338.23764,718.2775L337.42285,715.362Q336.78815,712.3656,336.97717,709.1625Q337.8335,699.3498,344.76392,693.22766Q351.69434,687.10547,361.53836,687.4658Q371.3517,688.32214,377.4743,695.25214Q383.59692,702.1821,383.23666,712.0255"/>
</g>
<g style="fill:rgb(237,191,154); fill-opacity:1.0; stroke-linejoin: miter">
<path d="M387.11917,697.83014L387.11917,697.8306Q387.11917,697.83185,387.11917,697.83014"/>
</g>
<g style="fill:rgb(0,0,0); fill-opacity:1.0; stroke-linejoin: miter">
<path d="M383.44562,710.5398L383.44562,710.5398C383.44562,723.45685,372.97412,733.9285,360.0569,733.9285L360.0569,733.9285C347.13965,733.9285,336.66815,723.45685,336.66815,710.5398L336.66815,710.5398C336.66815,697.6226,347.13965,687.151,360.0569,687.151L360.0569,687.151C372.97412,687.151,383.44562,697.6225,383.44562,710.5398L383.44562,710.5398 M383.1374,710.5398L383.1374,710.5398C383.1374,697.7927,372.80386,687.4592,360.0569,687.4592L360.0569,687.4592C347.3099,687.4592,336.97638,697.7929,336.97638,710.5398L336.97638,710.5398C336.97638,723.2866,347.3099,733.6203,360.0569,733.6203L360.0569,733.6203C372.80386,733.6203,383.1374,723.2866,383.1374,710.5398 Z"/>
</g>
<g style="fill:rgb(254,254,254); fill-opacity:1.0; stroke-linejoin: miter">
<path d="M360.4658,730.8977L356.99612,730.8989L357.01694,715.2523L345.64355,695.41785L351.4629,695.2366L360.3027,710.669L360.4658,730.8977"/>
</g>
<g style="fill:rgb(254,254,254); fill-opacity:1.0; stroke-linejoin: miter">
<path d="M359.47824,730.8977L362.9479,730.8989L362.9271,715.2523L374.30048,695.41785L368.48114,695.2366L359.64133,710.669L359.47824,730.8977"/>
</g>
<g style="fill:rgb(254,254,254); fill-opacity:1.0; stroke-linejoin: miter">
</g>
<g style="fill:rgb(254,254,254); fill-opacity:1.0; stroke-linejoin: miter">
</g>
<g style="fill:rgb(136,82,49); fill-opacity:1.0; stroke-linejoin: miter">
</g>
<g style="fill:rgb(136,82,49); fill-opacity:1.0; stroke-linejoin: miter">
</g>
<g style="fill:rgb(136,82,49); fill-opacity:1.0; stroke-linejoin: miter">
</g>
<g style="fill:rgb(136,82,49); fill-opacity:1.0; stroke-linejoin: miter">
</g>
<g style="fill:rgb(136,82,49); fill-opacity:1.0; stroke-linejoin: miter">
</g>
<g style="fill:rgb(136,82,49); fill-opacity:1.0; stroke-linejoin: miter">
</g>
<g style="fill:rgb(136,82,49); fill-opacity:1.0; stroke-linejoin: miter">
</g>
<g style="fill:rgb(0,0,0); fill-opacity:1.0; stroke-linejoin: miter">
<path d="M372.89633,705.59515L372.89633,705.5957Q372.89633,705.5969,372.89633,705.59515"/>
</g>
<g style="fill:rgb(0,0,0); fill-opacity:1.0; stroke-linejoin: miter">
<path d="M347.0477,705.59515L347.0477,705.5957Q347.0477,705.5969,347.0477,705.59515"/>
</g>
<g style="fill:url(#grad1); fill-opacity:1.0; stroke-linejoin: miter">
<path d="M359.9712,706.0892L359.50656,706.116Q355.835,706.27625,355.73306,706.3382Q354.83548,706.4117,353.69504,706.82806Q352.684,707.2369,351.749,707.9071Q351.46066,708.10175,350.85217,708.5842Q349.10095,710.11035,348.89166,710.1921Q348.2576,710.6114,347.41867,710.874Q345.28934,711.48663,343.6036,710.8057Q341.74567,709.91986,340.83368,708.3017Q340.0671,706.55945,340.34494,704.75433Q340.54346,703.06616,341.98245,701.6852Q343.41107,700.38135,345.15503,700.2755Q346.55853,700.1548,348.4698,701.05304Q348.9069,701.25385,349.85382,701.8968L352.52948,703.89575Q353.20175,704.35626,354.08142,704.64435Q355.33627,705.1418,359.97247,705.09607L359.9712,706.0892"/>
</g>
<g style="fill:url(#grad1); fill-opacity:1.0; stroke-linejoin: miter">
<path d="M359.97284,706.0892L360.43747,706.116Q364.10904,706.27625,364.21097,706.3382Q365.10855,706.4117,366.249,706.82806Q367.26004,707.2369,368.19504,707.9071Q368.48337,708.10175,369.09186,708.5842Q370.84308,710.11035,371.05237,710.1921Q371.68643,710.6114,372.52536,710.874Q374.6547,711.48663,376.34042,710.8057Q378.19836,709.91986,379.11035,708.3017Q379.87692,706.55945,379.5991,704.75433Q379.40057,703.06616,377.96158,701.6852Q376.53296,700.38135,374.789,700.2755Q373.3855,700.1548,371.47424,701.05304Q371.03714,701.25385,370.0902,701.8968L367.41455,703.89575Q366.74228,704.35626,365.8626,704.64435Q364.60776,705.1418,359.97156,705.09607L359.97284,706.0892"/>
</g>
<g style="fill:rgb(0,0,0); fill-opacity:1.0; stroke-linejoin: miter">
</g>
<g style="fill:rgb(0,0,0); fill-opacity:1.0; stroke-linejoin: miter">
</g>
<g style="fill:url(#grad1); fill-opacity:1.0; stroke-linejoin: miter">
<path d="M359.9719,705.3457L359.97046,705.71747L359.96906,706.0893L359.97116,706.0892Q359.9716,705.7595,359.97202,705.4299L359.9719,705.3457 Z"/>
</g>
<g style="fill:url(#grad2); fill-opacity:1.0; stroke-linejoin: miter">
<path d="M374.44962,700.2612L374.15802,700.27094Q373.08185,700.29364,371.2548,701.1641Q370.6572,701.50415,370.0902,701.8968L367.26254,703.996Q366.64453,704.3883,365.8626,704.64435Q364.50177,705.1497,359.97302,705.0961L359.97284,706.0892Q364.0108,706.2806,363.98932,706.30585Q365.11954,706.4197,365.99854,706.73975Q366.83667,707.0088,367.98627,707.7614Q368.8197,708.29913,370.74152,709.9772Q370.854,710.0966,371.49783,710.4542Q372.85547,711.1703,374.6659,711.1598Q375.55173,711.1244,376.3404,710.8057Q377.57904,710.2152,378.39728,709.29913Q378.9595,708.698,379.26782,707.9137Q379.70148,706.74756,379.67096,705.5535Q379.65503,704.3321,379.17758,703.3145Q378.51016,702.12854,377.96158,701.6852Q376.34818,700.23914,374.44962,700.2612 Z"/>
</g>
<g style="fill:rgb(0,0,0); fill-opacity:1.0; stroke-linejoin: miter">
</g>
<g style="fill:rgb(0,0,0); fill-opacity:1.0; stroke-linejoin: miter">
</g>
<g style="fill:rgb(0,0,0); fill-opacity:1.0; stroke-linejoin: miter">
</g>
<g style="fill:rgb(0,0,0); fill-opacity:1.0; stroke-linejoin: miter">
</g>
<g style="fill:rgb(0,0,0); fill-opacity:1.0; stroke-linejoin: miter">
</g>
<g style="fill:rgb(0,0,0); fill-opacity:1.0; stroke-linejoin: miter">
</g>
<g>
<g style="fill:rgb(254,254,254); fill-opacity:1.0; stroke-linejoin: miter">
<path d="M383.80896,738.49005L386.97632,738.5062Q387.2188,738.5075,387.44598,738.53894Q387.658,738.5704,387.8393,738.67737Q388.00555,738.76917,388.11072,738.95154Q388.21585,739.134,388.2144,739.4219Q388.21112,740.0584,387.86163,740.23846Q387.53308,740.4007,386.98575,740.4007Q386.97623,740.4007,386.96664,740.40063L386.26953,740.39703Q386.2383,740.39685,386.20718,740.39685Q385.5584,740.39685,384.95065,740.46606Q384.31378,740.53864,383.79694,740.83905L383.80896,738.49005 Z M342.84128,739.05365L344.35706,741.9712L344.1449,741.9701Q344.11365,741.9699,344.0827,741.9699Q342.89728,741.9699,342.12805,742.2023Q341.33875,742.44073,340.9589,742.6358L342.84128,739.05365 Z M375.22733,739.2191L376.7431,742.1367L376.53094,742.1356Q376.49942,742.13544,376.46817,742.13544Q375.2831,742.13544,374.5141,742.3678Q373.7248,742.60626,373.3449,742.80133L375.22733,739.2191 Z M329.2138,736.6501L332.49365,741.34985L332.47745,744.5172L334.02325,744.5251L334.03943,741.3577L337.30652,736.69147L335.4273,736.6818L333.25952,739.76245L331.18393,736.66016L329.2138,736.6501 Z M341.53568,736.5312L342.0459,737.5189L338.25146,744.5467L339.8882,744.55505L339.93414,744.46436Q340.0257,744.3436,340.43588,744.1487Q340.83084,743.9689,341.4228,743.79Q341.99954,743.6262,342.71243,743.50867Q343.40344,743.39465,344.10815,743.39465Q344.13046,743.39465,344.15277,743.3948L345.09238,743.39954L345.7077,744.58484L347.4202,744.59357L343.21786,736.5398L341.53568,736.5312 Z M358.09906,736.79767L360.77167,744.6618L362.8479,744.6724L363.667,741.56976L364.63617,744.6815L366.7427,744.6923L369.54102,736.85614L367.87396,736.84766L365.738,742.59576L363.97916,736.82776L362.20602,736.81866L362.8321,738.86786L361.7826,742.5755L359.78125,736.8063L358.09906,736.79767 Z M373.9217,736.69666L374.43195,737.6844L370.6375,744.7122L372.27423,744.7206L372.32016,744.6299Q372.4117,744.5091,372.8219,744.3142Q373.21686,744.13434,373.80884,743.9555Q374.38556,743.79175,375.09848,743.67413Q375.7895,743.5601,376.4942,743.5601Q376.5165,743.5601,376.53882,743.56024L377.47842,743.56506L378.09372,744.7503L379.8062,744.75903L375.6039,736.70526L373.9217,736.69666 Z M382.27112,736.9212L382.23102,744.7714L383.77682,744.77936L383.78897,742.4Q384.0473,742.26495,384.25995,742.1751Q384.47256,742.08527,384.7456,742.0412Q385.00345,741.9971,385.36734,741.96857Q385.65546,741.9575,386.07806,741.9575Q386.16684,741.9575,386.26154,741.958L386.95868,741.96155Q386.972,741.9616,386.98523,741.9616Q388.2999,741.9616,389.05353,741.2903Q389.79953,740.62726,389.80557,739.4452Q389.80844,738.88446,389.61383,738.41364Q389.4343,737.95807,389.1026,737.6229Q388.7708,737.303,388.28677,737.11865Q387.8178,736.9495,387.25708,736.9467L382.27112,736.9212 Z M352.51236,736.5116Q351.87494,736.5116,351.29495,736.672Q350.70306,736.8357,350.26196,737.1517Q349.82092,737.4525,349.54587,737.8906Q349.286,738.3288,349.2833,738.85925Q349.28003,739.4957,349.5202,739.9516Q349.76044,740.39233,350.19846,740.68256Q350.6214,740.9575,351.21182,741.0818Q351.80225,741.206,352.51453,741.20966Q353.74207,741.21594,354.3474,741.38574Q354.9376,741.5555,354.93488,742.0859Q354.93164,742.7224,354.26318,743.03723Q353.60635,743.3466,352.54132,743.3466Q352.52252,743.3466,352.5036,743.3465Q351.97318,743.3438,351.595,743.20544Q351.21674,743.0823,350.9298,742.8838Q350.65802,742.68536,350.44702,742.457Q350.25116,742.22864,350.07022,742.04584L348.94296,743.17676Q349.59067,743.953,350.52795,744.4124Q351.45016,744.8566,352.49585,744.862Q352.51538,744.8621,352.53482,744.8621Q353.34644,744.8621,354.05774,744.6881Q354.786,744.52515,355.33337,744.1793Q355.8655,743.84863,356.17133,743.31976Q356.47705,742.806,356.48068,742.09375Q356.4831,741.62396,356.34894,741.1838Q356.21478,740.7436,355.8073,740.4081Q355.39984,740.0726,354.62793,739.87164Q353.8712,739.6708,352.62848,739.6644Q352.0526,739.66144,351.70435,739.59906Q351.37125,739.53674,351.18994,739.42975Q351.0237,739.33795,350.96387,739.1861Q350.9191,739.04944,350.92,738.8676Q350.92087,738.70087,351.07327,738.535Q351.21045,738.3841,351.4384,738.26404Q351.66626,738.1591,351.9546,738.0848Q352.22107,738.027,352.50174,738.027Q352.50867,738.027,352.51562,738.02704Q353.1976,738.0305,353.803,738.1852Q354.39328,738.3397,354.84598,738.72095L355.8979,737.5139Q355.03708,736.91846,354.2197,736.7172Q353.40234,736.51605,352.5385,736.51166Q352.52542,736.5116,352.51236,736.5116 Z M348.8561,754.2397L350.3719,757.1572L350.15973,757.1561Q350.1282,757.15594,350.09695,757.15594Q348.9119,757.15594,348.14288,757.3883Q347.35358,757.6268,346.9737,757.82184L348.8561,754.2397 Z M331.72784,751.81824L334.40045,759.6823L336.47668,759.69293L337.29575,756.5903L338.26495,759.7021L340.3715,759.7128L343.1698,751.8767L341.50275,751.86816L339.3668,757.6163L337.60794,751.84827L335.8348,751.83923L336.46088,753.88837L335.41135,757.59607L333.41003,751.82684L331.72784,751.81824 Z M347.55048,751.7172L348.06073,752.7049L344.2663,759.7327L345.903,759.7411L345.94894,759.6504Q346.0405,759.5296,346.45068,759.3347Q346.84564,759.15485,347.43762,758.976Q348.01434,758.81226,348.72726,758.69464Q349.41827,758.5807,350.12296,758.5807Q350.14526,758.5807,350.1676,758.5808L351.1072,758.5856L351.7225,759.7708L353.435,759.7796L349.2327,751.7258L347.55048,751.7172 Z M355.8999,751.9417L355.8598,759.792L361.649,759.8216L361.657,758.2455L357.48944,758.2242L357.52148,751.95L355.8999,751.9417 Z M363.9623,751.9829L363.9222,759.8332L369.7114,759.8628L369.71942,758.2867L365.55182,758.2654L365.5839,751.9912L363.9623,751.9829 Z M372.02472,752.0241L371.98462,759.8744L378.45575,759.9075L378.4638,758.33136L373.53848,758.30615L373.54483,757.0635Q373.80316,756.9284,374.01578,756.83856Q374.22842,756.7487,374.4863,756.7045Q374.74414,756.6604,375.10803,756.63196Q375.39725,756.62085,375.822,756.62085Q375.90927,756.62085,376.00226,756.62134L377.15402,756.62726L377.162,755.0663L376.01022,755.0604Q375.979,755.06024,375.94788,755.06024Q375.2991,755.06024,374.69135,755.12946Q374.0696,755.202,373.5528,755.5025L373.56256,753.593L378.19995,753.6167L378.20795,752.0557L372.02472,752.0241 Z M380.2387,752.0661L380.2307,753.6271L383.07983,753.6416L383.0477,759.9309L384.60864,759.9389L384.6408,753.6496L387.596,753.6647L387.60397,752.10376L380.2387,752.0661 Z"/>
</g>
</g>
</g>
<defs>
<radialGradient id="grad1" gradientUnits="userSpaceOnUse" cx="344.9746" cy="705.82086" r="28.308716" >
<stop offset="0.0%" style="stop-color:rgb(32,150,241); stop-opacity:1.0" />
<stop offset="29.856115%" style="stop-color:rgb(63,80,181); stop-opacity:1.0" />
<stop offset="52.110355%" style="stop-color:rgb(103,57,182); stop-opacity:1.0" />
<stop offset="70.863304%" style="stop-color:rgb(139,195,73); stop-opacity:1.0" />
<stop offset="100.0%" style="stop-color:rgb(0,150,135); stop-opacity:1.0" />
</radialGradient>
<radialGradient id="grad2" gradientUnits="userSpaceOnUse" cx="374.84015" cy="705.49615" r="28.913696" >
<stop offset="0.0%" style="stop-color:rgb(74,174,77); stop-opacity:1.0" />
<stop offset="29.856115%" style="stop-color:rgb(0,150,135); stop-opacity:1.0" />
<stop offset="52.110355%" style="stop-color:rgb(103,57,182); stop-opacity:1.0" />
<stop offset="70.863304%" style="stop-color:rgb(139,195,73); stop-opacity:1.0" />
<stop offset="100.0%" style="stop-color:rgb(0,150,135); stop-opacity:1.0" />
</radialGradient>
<radialGradient id="grad0" gradientUnits="userSpaceOnUse" cx="341.97726" cy="722.31366" r="98.350296" >
<stop offset="0.0%" style="stop-color:rgb(216,207,83); stop-opacity:1.0" />
<stop offset="29.856115%" style="stop-color:rgb(194,151,83); stop-opacity:1.0" />
<stop offset="52.110355%" style="stop-color:rgb(136,82,49); stop-opacity:1.0" />
<stop offset="70.863304%" style="stop-color:rgb(196,142,81); stop-opacity:1.0" />
<stop offset="100.0%" style="stop-color:rgb(135,79,48); stop-opacity:1.0" />
</radialGradient>
</defs>
</svg>