<?xml version="1.0" encoding="utf-8"?>
<svg xmlns="http://www.w3.org/2000/svg" xmlns:xlink="http://www.w3.org/1999/xlink" version= "1.1" width="136px" height="84px" viewBox="292 682 136 84">
<g id="layer1">
<g style="fill:url(#grad0); fill-opacity:1.0; stroke-linejoin: miter">
<path d="M388.82355,713.43976L388.31958,717.3251Q385.72354,729.00037,376.23117,735.50916Q366.67648,742.0083,354.4037,739.9085Q342.72754,737.3126,336.21823,727.8208Q334.13416,724.7539,332.88132,721.2118L331.8684,717.5873Q331.07938,713.8622,331.3144,709.8802Q332.37897,697.6812,340.9948,690.0704Q349.61066,682.4595,361.84863,682.9074Q374.04843,683.97205,381.65994,692.5874Q389.27145,701.2027,388.82355,713.43976"/>
</g>
<g style="fill:rgb(237,191,154); fill-opacity:1.0; stroke-linejoin: miter">
<path d="M393.65012,695.7922L393.65012,695.79266Q393.65012,695.7939,393.65012,695.7922"/>
</g>
<g style="fill:rgb(0,0,0); fill-opacity:1.0; stroke-linejoin: miter">
<path d="M389.08322,711.5926L389.08322,711.5926C389.08322,727.6512,376.06528,740.6691,360.0067,740.6691L360.0067,740.6691C343.94827,740.6691,330.93024,727.6512,330.93024,711.5926L330.93024,711.5926C330.93024,695.534,343.94827,682.51605,360.0067,682.51605L360.0067,682.51605C376.06528,682.51605,389.08322,695.534,389.08322,711.5926L389.08322,711.5926 M388.70004,711.5926L388.70004,711.5926C388.70004,695.7456,375.85367,682.89923,360.0067,682.89923L360.0067,682.89923C344.15988,682.89923,331.31342,695.7456,331.31342,711.5926L331.31342,711.5926C331.31342,727.4396,344.15988,740.28595,360.0067,740.28595L360.0067,740.28595C375.85367,740.28595,388.70004,727.4396,388.70004,711.5926 Z"/>
</g>
<g style="fill:rgb(254,254,254); fill-opacity:1.0; stroke-linejoin: miter">
<path d="M360.51508,736.9012L356.20166,736.9027L356.22757,717.4512L342.08835,692.79333L349.32285,692.5679L360.31232,711.7532L360.51508,736.9012"/>
</g>
<g style="fill:rgb(254,254,254); fill-opacity:1.0; stroke-linejoin: miter">
<path d="M359.28738,736.9012L363.6008,736.9027L363.5749,717.4512L377.71414,692.79333L370.47964,692.5679L359.49017,711.7532L359.28738,736.9012"/>
</g>
<g style="fill:rgb(254,254,254); fill-opacity:1.0; stroke-linejoin: miter">
</g>
<g style="fill:rgb(254,254,254); fill-opacity:1.0; stroke-linejoin: miter">
</g>
<g style="fill:rgb(136,82,49); fill-opacity:1.0; stroke-linejoin: miter">
</g>
<g style="fill:rgb(136,82,49); fill-opacity:1.0; stroke-linejoin: miter">
</g>
<g style="fill:rgb(136,82,49); fill-opacity:1.0; stroke-linejoin: miter">
</g>
<g style="fill:rgb(136,82,49); fill-opacity:1.0; stroke-linejoin: miter">
</g>
<g style="fill:rgb(136,82,49); fill-opacity:1.0; stroke-linejoin: miter">
</g>
<g style="fill:rgb(136,82,49); fill-opacity:1.0; stroke-linejoin: miter">
</g>
<g style="fill:rgb(136,82,49); fill-opacity:1.0; stroke-linejoin: miter">
</g>
<g style="fill:rgb(0,0,0); fill-opacity:1.0; stroke-linejoin: miter">
<path d="M375.96854,705.4456L375.96854,705.4461Q375.96854,705.44727,375.96854,705.4456"/>
</g>
<g style="fill:rgb(0,0,0); fill-opacity:1.0; stroke-linejoin: miter">
<path d="M343.83395,705.4456L343.83395,705.4461Q343.83395,705.44727,343.83395,705.4456"/>
</g>
<g style="fill:url(#grad1); fill-opacity:1.0; stroke-linejoin: miter">
<path d="M359.90015,706.0597L359.32254,706.09314Q354.75815,706.29224,354.63144,706.36926Q353.5156,706.4605,352.09778,706.97815Q350.84082,707.48645,349.67856,708.3197Q349.3201,708.5617,348.56366,709.16144Q346.38626,711.05884,346.12622,711.1604Q345.33804,711.6816,344.29514,712.0081Q341.6478,712.77014,339.55234,711.9233Q337.24252,710.8221,336.10876,708.8102Q335.15582,706.6442,335.50116,704.4002Q335.74792,702.3017,337.5369,700.5848Q339.31314,698.96356,341.4809,698.83234Q343.22543,698.6824,345.6018,699.79877Q346.1452,700.0484,347.3224,700.84766L350.6488,703.3329Q351.48453,703.9054,352.57806,704.2635Q354.1431,704.88226,359.90173,704.8251L359.90015,706.0597"/>
</g>
<g style="fill:url(#grad1); fill-opacity:1.0; stroke-linejoin: miter">
<path d="M359.90234,706.0597L360.47995,706.09314Q365.04434,706.29224,365.17105,706.36926Q366.2869,706.4605,367.7047,706.97815Q368.96167,707.48645,370.12393,708.3197Q370.4824,708.5617,371.23883,709.16144Q373.41623,711.05884,373.67627,711.1604Q374.46445,711.6816,375.50735,712.0081Q378.1547,712.77014,380.25015,711.92334Q382.55997,710.82214,383.69373,708.81024Q384.64667,706.6443,384.30133,704.40027Q384.05457,702.30176,382.2656,700.58484Q380.48935,698.9636,378.3216,698.83234Q376.57706,698.6824,374.20068,699.79877Q373.6573,700.0484,372.4801,700.84766L369.1537,703.3329Q368.31796,703.9054,367.22443,704.2635Q365.6594,704.88226,359.90076,704.8251L359.90234,706.0597"/>
</g>
<g style="fill:rgb(0,0,0); fill-opacity:1.0; stroke-linejoin: miter">
</g>
<g style="fill:rgb(0,0,0); fill-opacity:1.0; stroke-linejoin: miter">
</g>
<g style="fill:url(#grad1); fill-opacity:1.0; stroke-linejoin: miter">
<path d="M359.90106,705.13544L359.8993,705.5976L359.89752,706.0599L359.90015,706.0597Q359.9007,705.64984,359.9012,705.24005L359.90106,705.13544 Z"/>
</g>
<g style="fill:url(#grad2); fill-opacity:1.0; stroke-linejoin: miter">
<path d="M377.8995,698.81445L377.53702,698.8266Q376.19916,698.85474,373.9278,699.93695Q373.18488,700.3596,372.47998,700.8478L368.9647,703.4574Q368.19635,703.9451,367.2243,704.2635Q365.53256,704.8918,359.90247,704.8252L359.90225,706.0597Q364.92218,706.29767,364.8955,706.32904Q366.30054,706.47064,367.39325,706.8684Q368.43527,707.2028,369.8644,708.13855Q370.9005,708.807,373.2897,710.8932Q373.4295,711.0417,374.22992,711.4863Q375.91772,712.37646,378.1684,712.3634Q379.26968,712.31946,380.25012,711.9232Q381.79,711.18915,382.80722,710.05023Q383.50616,709.303,383.88947,708.32794Q384.4285,706.87823,384.3906,705.3938Q384.3708,703.8753,383.77728,702.6103Q382.94754,701.13586,382.26556,700.5847Q380.2598,698.78705,377.8995,698.81445 Z"/>
</g>
<g style="fill:rgb(0,0,0); fill-opacity:1.0; stroke-linejoin: miter">
</g>
<g style="fill:rgb(0,0,0); fill-opacity:1.0; stroke-linejoin: miter">
</g>
<g style="fill:rgb(0,0,0); fill-opacity:1.0; stroke-linejoin: miter">
</g>
<g style="fill:rgb(0,0,0); fill-opacity:1.0; stroke-linejoin: miter">
</g>
<g style="fill:rgb(0,0,0); fill-opacity:1.0; stroke-linejoin: miter">
</g>
<g style="fill:rgb(0,0,0); fill-opacity:1.0; stroke-linejoin: miter">
</g>
<g>
<g style="fill:rgb(254,254,254); fill-opacity:1.0; stroke-linejoin: miter">
<path d="M403.3756,751.64716L409.09793,751.67426Q409.536,751.67633,409.94644,751.73303Q410.3295,751.7896,410.65714,751.98285Q410.95752,752.14856,411.1476,752.478Q411.3377,752.80743,411.33527,753.3277Q411.3298,754.4776,410.69852,754.80316Q410.10437,755.09674,409.11386,755.09674Q409.09784,755.09674,409.08173,755.0967L407.82227,755.09076Q407.76968,755.0905,407.7173,755.0905Q406.54108,755.0905,405.4396,755.2164Q404.289,755.3478,403.35553,755.891L403.3756,751.64716 Z M329.3623,752.6929L332.10272,757.9628L331.7194,757.961Q331.6667,757.96075,331.61444,757.96075Q329.4678,757.96075,328.07587,758.38184Q326.65005,758.8131,325.96387,759.16583L329.3623,752.6929 Z M387.87222,752.9701L390.61264,758.24005L390.22934,758.2382Q390.17664,758.238,390.1244,758.238Q387.97772,758.238,386.5858,758.65906Q385.15997,759.0904,384.47382,759.44305L387.87222,752.9701 Z M304.74075,748.3596L310.6694,756.8482L310.64227,762.5705L313.435,762.58374L313.4621,756.8614L319.3614,748.42896L315.96634,748.41284L312.05197,753.97986L308.30008,748.3765L304.74075,748.3596 Z M327.00183,748.13654L327.9243,749.92065L321.07385,762.61993L324.03082,762.6339L324.11377,762.47003Q324.27908,762.2518,325.02,761.89935Q325.73343,761.57416,326.8028,761.2507Q327.84464,760.95447,329.1325,760.7415Q330.3838,760.5346,331.65994,760.5346Q331.69727,760.5346,331.7346,760.5348L333.43213,760.54285L334.54456,762.6838L337.63843,762.6984L330.04095,748.15094L327.00183,748.13654 Z M356.92603,748.60693L361.75977,762.8127L365.51074,762.83044L366.98843,757.22455L368.74152,762.84576L372.54727,762.86383L377.59753,748.70483L374.5858,748.6906L370.7307,759.0768L367.54926,748.6572L364.34586,748.6421L365.47827,752.34375L363.5847,759.0429L359.96515,748.62134L356.92603,748.60693 Z M385.51175,748.4138L386.4342,750.1979L379.5838,762.89716L382.54077,762.9112L382.6237,762.74725Q382.789,762.52905,383.52994,762.1766Q384.24335,761.85144,385.3127,761.5279Q386.35455,761.2317,387.64243,761.01874Q388.8937,760.8118,390.16986,760.8118Q390.20718,760.8118,390.2445,760.812L391.94205,760.82007L393.05447,762.961L396.14838,762.97565L388.55087,748.4282L385.51175,748.4138 Z M400.59628,748.81384L400.52908,762.9964L403.32178,763.00964L403.34216,758.71106Q403.80878,758.46686,404.19287,758.3044Q404.57697,758.1419,405.0702,758.06213Q405.536,757.9822,406.19336,757.93054Q406.72156,757.9101,407.49994,757.9101Q407.64978,757.9101,407.8089,757.9108L409.06836,757.9168Q409.09058,757.91693,409.11273,757.91693Q411.49045,757.91693,412.85254,756.70264Q414.19986,755.5043,414.21,753.36865Q414.21478,752.35565,413.86285,751.5052Q413.5382,750.68225,412.93872,750.077Q412.33908,749.4992,411.4645,749.1665Q410.61716,748.8613,409.60413,748.8565L400.59628,748.81384 Z M346.83618,748.09375Q345.68274,748.09375,344.63342,748.3844Q343.5642,748.6805,342.76746,749.2517Q341.97086,749.79553,341.47427,750.5872Q341.00507,751.379,341.00052,752.3373Q340.99506,753.48724,341.42926,754.31067Q341.86356,755.10675,342.6551,755.63074Q343.41937,756.1272,344.48615,756.3513Q345.55292,756.5754,346.83975,756.5815Q349.0575,756.592,350.15125,756.8984Q351.2176,757.2046,351.21307,758.1629Q351.2076,759.3128,350.00018,759.8821Q348.8123,760.44214,346.8849,760.44214Q346.85327,760.44214,346.82144,760.442Q345.86316,760.43744,345.17987,760.1878Q344.4964,759.9655,343.97787,759.6071Q343.48672,759.24884,343.10538,758.83636Q342.75137,758.42395,342.42438,758.0939L340.38858,760.1377Q341.55927,761.5397,343.2529,762.3691Q344.9193,763.171,346.80847,763.17993Q346.84113,763.1801,346.87366,763.1801Q348.3429,763.1801,349.63013,762.86475Q350.94577,762.5698,351.93442,761.94476Q352.89554,761.3469,353.44766,760.39124Q353.99966,759.46295,354.00577,758.1761Q354.0098,757.32733,353.76715,756.53217Q353.52448,755.737,352.7881,755.13116Q352.0517,754.52527,350.65704,754.1627Q349.28973,753.80035,347.04462,753.7897Q346.0042,753.7848,345.375,753.67224Q344.7732,753.5599,344.44553,753.3667Q344.14514,753.201,344.03693,752.92664Q343.95593,752.6799,343.9575,752.3513Q343.95892,752.0501,344.23416,751.75024Q344.48187,751.4776,344.8936,751.26056Q345.30518,751.0708,345.82605,750.9364Q346.3084,750.8316,346.81644,750.8316Q346.828,750.8316,346.8396,750.83167Q348.0717,750.8375,349.16556,751.1165Q350.23206,751.3953,351.0502,752.08374L352.94977,749.90234Q351.3942,748.82715,349.9174,748.4642Q348.44058,748.10126,346.87997,748.0939Q346.85806,748.09375,346.83618,748.09375 Z"/>
</g>
</g>
<g style="fill:rgb(64,54,39); fill-opacity:1.0; stroke-linejoin: miter">
</g>
<g style="fill:rgb(64,54,39); fill-opacity:1.0; stroke-linejoin: miter">
</g>
</g>
<defs>
<radialGradient id="grad1" gradientUnits="userSpaceOnUse" cx="341.25674" cy="705.72614" r="35.1929" >
<stop offset="0.0%" style="stop-color:rgb(32,150,241); stop-opacity:1.0" />
<stop offset="29.856115%" style="stop-color:rgb(63,80,181); stop-opacity:1.0" />
<stop offset="52.110355%" style="stop-color:rgb(103,57,182); stop-opacity:1.0" />
<stop offset="70.863304%" style="stop-color:rgb(139,195,73); stop-opacity:1.0" />
<stop offset="100.0%" style="stop-color:rgb(0,150,135); stop-opacity:1.0" />
</radialGradient>
<radialGradient id="grad0" gradientUnits="userSpaceOnUse" cx="337.5305" cy="726.22974" r="122.26755" >
<stop offset="0.0%" style="stop-color:rgb(216,207,83); stop-opacity:1.0" />
<stop offset="29.856115%" style="stop-color:rgb(194,151,83); stop-opacity:1.0" />
<stop offset="52.110355%" style="stop-color:rgb(136,82,49); stop-opacity:1.0" />
<stop offset="70.863304%" style="stop-color:rgb(196,142,81); stop-opacity:1.0" />
<stop offset="100.0%" style="stop-color:rgb(135,79,48); stop-opacity:1.0" />
</radialGradient>
<radialGradient id="grad2" gradientUnits="userSpaceOnUse" cx="378.38507" cy="705.32245" r="35.945007" >
<stop offset="0.0%" style="stop-color:rgb(74,174,77); stop-opacity:1.0" />
<stop offset="29.856115%" style="stop-color:rgb(0,150,135); stop-opacity:1.0" />
<stop offset="52.110355%" style="stop-color:rgb(103,57,182); stop-opacity:1.0" />
<stop offset="70.863304%" style="stop-color:rgb(139,195,73); stop-opacity:1.0" />
<stop offset="100.0%" style="stop-color:rgb(0,150,135); stop-opacity:1.0" />
</radialGradient>
</defs>
</svg>