<?xml version="1.0" encoding="utf-8"?>
<svg xmlns="http://www.w3.org/2000/svg" xmlns:xlink="http://www.w3.org/1999/xlink" version= "1.1" width="36px" height="12px" viewBox="342 718 36 12">
<g id="layer1">
<g style="fill:url(#grad0); fill-opacity:1.0; stroke-linejoin: miter">
<path d="M365.9154,724.34845L365.8125,725.14185Q365.2824,727.526,363.344,728.85516Q361.39288,730.1823,358.88672,729.75354Q356.50238,729.22345,355.17313,727.28516Q353.84586,725.33417,354.27463,722.8282Q354.80472,720.444,356.74313,719.1148Q358.69424,717.7876,361.2004,718.2164Q363.58475,718.7465,364.914,720.6848Q365.3396,721.3111,365.59543,722.0344L365.80228,722.77454Q365.9634,723.5353,365.9154,724.34845"/>
</g>
<g style="fill:rgb(237,191,154); fill-opacity:1.0; stroke-linejoin: miter">
<path d="M366.90106,720.74475L366.90106,720.7452Q366.90106,720.74634,366.90106,720.74475"/>
</g>
<g style="fill:rgb(0,0,0); fill-opacity:1.0; stroke-linejoin: miter">
<path d="M365.96848,723.9712L365.96848,723.9712C365.96848,727.25024,363.3102,729.90875,360.03088,729.90875L360.03088,729.90875C356.75168,729.90875,354.09332,727.25024,354.09332,723.9712L354.09332,723.9712C354.09332,720.69214,356.75168,718.0336,360.03088,718.0336L360.03088,718.0336C363.31015,718.0336,365.96848,720.69214,365.96848,723.9712L365.96848,723.9712 M365.89023,723.9712L365.89023,723.9712C365.89023,720.7353,363.26694,718.1119,360.03088,718.1119L360.03088,718.1119C356.7949,718.1119,354.17157,720.7353,354.17157,723.9712L354.17157,723.9712C354.17157,727.2071,356.7949,729.8305,360.03088,729.8305L360.03088,729.8305C363.267,729.8305,365.89023,727.2071,365.89023,723.9712 Z"/>
</g>
<g style="fill:rgb(254,254,254); fill-opacity:1.0; stroke-linejoin: miter">
<path d="M360.1347,729.13934L359.25388,729.13965L359.25916,725.1676L356.37186,720.1323L357.84918,720.08624L360.0933,724.0041L360.1347,729.13934"/>
</g>
<g style="fill:rgb(254,254,254); fill-opacity:1.0; stroke-linejoin: miter">
<path d="M359.88397,729.13934L360.7648,729.13965L360.75952,725.1676L363.64682,720.1323L362.1695,720.08624L359.92538,724.0041L359.88397,729.13934"/>
</g>
<g style="fill:rgb(254,254,254); fill-opacity:1.0; stroke-linejoin: miter">
</g>
<g style="fill:rgb(254,254,254); fill-opacity:1.0; stroke-linejoin: miter">
</g>
<g style="fill:rgb(136,82,49); fill-opacity:1.0; stroke-linejoin: miter">
</g>
<g style="fill:rgb(136,82,49); fill-opacity:1.0; stroke-linejoin: miter">
</g>
<g style="fill:rgb(136,82,49); fill-opacity:1.0; stroke-linejoin: miter">
</g>
<g style="fill:rgb(136,82,49); fill-opacity:1.0; stroke-linejoin: miter">
</g>
<g style="fill:rgb(136,82,49); fill-opacity:1.0; stroke-linejoin: miter">
</g>
<g style="fill:rgb(136,82,49); fill-opacity:1.0; stroke-linejoin: miter">
</g>
<g style="fill:rgb(136,82,49); fill-opacity:1.0; stroke-linejoin: miter">
</g>
<g style="fill:rgb(0,0,0); fill-opacity:1.0; stroke-linejoin: miter">
<path d="M363.29037,722.71594L363.29037,722.71643Q363.29037,722.7176,363.29037,722.71594"/>
</g>
<g style="fill:rgb(0,0,0); fill-opacity:1.0; stroke-linejoin: miter">
<path d="M356.7283,722.71594L356.7283,722.71643Q356.7283,722.7176,356.7283,722.71594"/>
</g>
<g style="fill:url(#grad1); fill-opacity:1.0; stroke-linejoin: miter">
<path d="M360.00916,722.8414L359.89117,722.8482Q358.95914,722.8889,358.93323,722.90466Q358.70535,722.9232,358.41583,723.0289Q358.15915,723.1327,357.92188,723.303Q357.8487,723.3524,357.6942,723.4748Q357.24954,723.86206,357.19644,723.88293Q357.03546,723.9894,356.8225,724.0561Q356.2814,724.2116,355.854,724.03876Q355.38235,723.81384,355.1508,723.4031Q354.95624,722.96063,355.02673,722.50256Q355.0771,722.0739,355.44244,721.7234Q355.8051,721.3924,356.2478,721.3655Q356.60397,721.3349,357.08932,721.5629Q357.20032,721.6139,357.44073,721.77704L358.11996,722.28455Q358.29062,722.4015,358.51395,722.4746Q358.831,722.60077,360.0095,722.5893L360.00916,722.8414"/>
</g>
<g style="fill:url(#grad1); fill-opacity:1.0; stroke-linejoin: miter">
<path d="M360.00952,722.8414L360.1275,722.8482Q361.05954,722.8889,361.08545,722.90466Q361.31332,722.9232,361.60284,723.0289Q361.85953,723.1327,362.0968,723.303Q362.16998,723.3524,362.32446,723.4748Q362.76913,723.86206,362.82224,723.88293Q362.98322,723.9894,363.19617,724.0561Q363.73727,724.2116,364.16467,724.03876Q364.63632,723.81384,364.8679,723.4031Q365.06244,722.96063,364.99194,722.50256Q364.9416,722.0739,364.57623,721.7234Q364.21356,721.3924,363.77087,721.3655Q363.4147,721.3349,362.92935,721.5629Q362.81836,721.6139,362.57794,721.77704L361.8987,722.28455Q361.72806,722.4015,361.50473,722.4746Q361.18768,722.60077,360.0092,722.5893L360.00952,722.8414"/>
</g>
<g style="fill:rgb(0,0,0); fill-opacity:1.0; stroke-linejoin: miter">
</g>
<g style="fill:rgb(0,0,0); fill-opacity:1.0; stroke-linejoin: miter">
</g>
<g style="fill:url(#grad1); fill-opacity:1.0; stroke-linejoin: miter">
<path d="M360.0093,722.6526L360.00894,722.747L360.00858,722.8414L360.00912,722.8413Q360.00922,722.7576,360.00934,722.67395L360.0093,722.6526 Z"/>
</g>
<g style="fill:url(#grad2); fill-opacity:1.0; stroke-linejoin: miter">
<path d="M363.6847,721.3618L363.61066,721.3643Q363.33746,721.37006,362.87363,721.59106Q362.72192,721.67737,362.578,721.77704L361.86014,722.30994Q361.70325,722.40955,361.50476,722.47455Q361.1593,722.60284,360.00958,722.58923L360.00955,722.8413Q361.03464,722.88995,361.0292,722.89636Q361.31613,722.92523,361.53925,723.0065Q361.75204,723.0748,362.04388,723.26587Q362.25546,723.4024,362.74335,723.82837Q362.77188,723.8587,362.93533,723.94946Q363.28,724.1313,363.7396,724.1286Q363.96448,724.1196,364.1647,724.0387Q364.47916,723.8888,364.68686,723.65625Q364.8296,723.50366,364.90787,723.3045Q365.01794,723.0085,365.0102,722.7054Q365.00616,722.39526,364.88495,722.13696Q364.7155,721.8359,364.57626,721.7233Q364.16666,721.3562,363.6847,721.3618 Z"/>
</g>
<g style="fill:rgb(0,0,0); fill-opacity:1.0; stroke-linejoin: miter">
</g>
<g style="fill:rgb(0,0,0); fill-opacity:1.0; stroke-linejoin: miter">
</g>
<g style="fill:rgb(0,0,0); fill-opacity:1.0; stroke-linejoin: miter">
</g>
<g style="fill:rgb(0,0,0); fill-opacity:1.0; stroke-linejoin: miter">
</g>
<g style="fill:rgb(0,0,0); fill-opacity:1.0; stroke-linejoin: miter">
</g>
<g style="fill:rgb(0,0,0); fill-opacity:1.0; stroke-linejoin: miter">
</g>
<g style="fill:rgb(64,54,39); fill-opacity:1.0; stroke-linejoin: miter">
</g>
<g style="fill:rgb(64,54,39); fill-opacity:1.0; stroke-linejoin: miter">
</g>
<g style="fill:rgb(64,54,39); fill-opacity:1.0; stroke-linejoin: miter">
</g>
<g style="fill:rgb(64,54,39); fill-opacity:1.0; stroke-linejoin: miter">
</g>
</g>
<defs>
<radialGradient id="grad1" gradientUnits="userSpaceOnUse" cx="356.20203" cy="722.77325" r="7.1865845" >
<stop offset="0.0%" style="stop-color:rgb(32,150,241); stop-opacity:1.0" />
<stop offset="29.856115%" style="stop-color:rgb(63,80,181); stop-opacity:1.0" />
<stop offset="52.110355%" style="stop-color:rgb(103,57,182); stop-opacity:1.0" />
<stop offset="70.863304%" style="stop-color:rgb(139,195,73); stop-opacity:1.0" />
<stop offset="100.0%" style="stop-color:rgb(0,150,135); stop-opacity:1.0" />
</radialGradient>
<radialGradient id="grad2" gradientUnits="userSpaceOnUse" cx="363.78384" cy="722.6908" r="7.3401794" >
<stop offset="0.0%" style="stop-color:rgb(74,174,77); stop-opacity:1.0" />
<stop offset="29.856115%" style="stop-color:rgb(0,150,135); stop-opacity:1.0" />
<stop offset="52.110355%" style="stop-color:rgb(103,57,182); stop-opacity:1.0" />
<stop offset="70.863304%" style="stop-color:rgb(139,195,73); stop-opacity:1.0" />
<stop offset="100.0%" style="stop-color:rgb(0,150,135); stop-opacity:1.0" />
</radialGradient>
<radialGradient id="grad0" gradientUnits="userSpaceOnUse" cx="355.44113" cy="726.9602" r="24.967724" >
<stop offset="0.0%" style="stop-color:rgb(216,207,83); stop-opacity:1.0" />
<stop offset="29.856115%" style="stop-color:rgb(194,151,83); stop-opacity:1.0" />
<stop offset="52.110355%" style="stop-color:rgb(136,82,49); stop-opacity:1.0" />
<stop offset="70.863304%" style="stop-color:rgb(196,142,81); stop-opacity:1.0" />
<stop offset="100.0%" style="stop-color:rgb(135,79,48); stop-opacity:1.0" />
</radialGradient>
</defs>
</svg>