<?xml version="1.0" encoding="utf-8"?>
<svg xmlns="http://www.w3.org/2000/svg" xmlns:xlink="http://www.w3.org/1999/xlink" version= "1.1" width="17px" height="7px" viewBox="351 721 17 7">
<g id="layer1">
<g style="fill:url(#grad0); fill-opacity:1.0; stroke-linejoin: miter">
<path d="M363.39172,724.6876L363.3327,725.1427Q363.02863,726.51025,361.9168,727.27264Q360.7977,728.03394,359.3602,727.788Q357.9926,727.48395,357.23016,726.3722Q356.98605,726.01294,356.83932,725.598L356.72067,725.1735Q356.62823,724.7372,356.65576,724.27075Q356.7805,722.842,357.78964,721.9505Q358.79883,721.059,360.23224,721.11145Q361.66116,721.23615,362.55267,722.24524Q363.4442,723.2544,363.39172,724.6876"/>
</g>
<g style="fill:rgb(237,191,154); fill-opacity:1.0; stroke-linejoin: miter">
<path d="M363.9571,722.6207L363.9571,722.6212Q363.9571,722.6224,363.9571,722.6207"/>
</g>
<g style="fill:rgb(0,0,0); fill-opacity:1.0; stroke-linejoin: miter">
<path d="M363.42215,724.4714L363.42215,724.4714C363.42215,726.3523,361.8973,727.8771,360.01648,727.8771L360.01648,727.8771C358.13553,727.8771,356.61078,726.3523,356.61078,724.4714L356.61078,724.4714C356.61078,722.5903,358.13553,721.0657,360.01648,721.0657L360.01648,721.0657C361.89737,721.0657,363.42215,722.59045,363.42215,724.4714L363.42215,724.4714 M363.3773,724.4714L363.3773,724.4714C363.3773,722.6152,361.87256,721.1106,360.01648,721.1106L360.01648,721.1106C358.16037,721.1106,356.65564,722.615,356.65564,724.4714L356.65564,724.4714C356.65564,726.3276,358.16037,727.83215,360.01648,727.83215L360.01648,727.83215C361.87247,727.83215,363.3773,726.3276,363.3773,724.4714 Z"/>
</g>
<g style="fill:rgb(254,254,254); fill-opacity:1.0; stroke-linejoin: miter">
<path d="M360.076,727.4357L359.57077,727.4359L359.5738,725.1576L357.9177,722.2694L358.76505,722.24304L360.05225,724.4902L360.076,727.4357"/>
</g>
<g style="fill:rgb(254,254,254); fill-opacity:1.0; stroke-linejoin: miter">
<path d="M359.9322,727.4357L360.4374,727.4359L360.4344,725.1576L362.09048,722.2694L361.24313,722.24304L359.95593,724.4902L359.9322,727.4357"/>
</g>
<g style="fill:rgb(254,254,254); fill-opacity:1.0; stroke-linejoin: miter">
</g>
<g style="fill:rgb(254,254,254); fill-opacity:1.0; stroke-linejoin: miter">
</g>
<g style="fill:rgb(136,82,49); fill-opacity:1.0; stroke-linejoin: miter">
</g>
<g style="fill:rgb(136,82,49); fill-opacity:1.0; stroke-linejoin: miter">
</g>
<g style="fill:rgb(136,82,49); fill-opacity:1.0; stroke-linejoin: miter">
</g>
<g style="fill:rgb(136,82,49); fill-opacity:1.0; stroke-linejoin: miter">
</g>
<g style="fill:rgb(136,82,49); fill-opacity:1.0; stroke-linejoin: miter">
</g>
<g style="fill:rgb(136,82,49); fill-opacity:1.0; stroke-linejoin: miter">
</g>
<g style="fill:rgb(136,82,49); fill-opacity:1.0; stroke-linejoin: miter">
</g>
<g style="fill:rgb(0,0,0); fill-opacity:1.0; stroke-linejoin: miter">
<path d="M361.88605,723.7514L361.88605,723.7519Q361.88605,723.75305,361.88605,723.7514"/>
</g>
<g style="fill:rgb(0,0,0); fill-opacity:1.0; stroke-linejoin: miter">
<path d="M358.12213,723.7514L358.12213,723.7519Q358.12213,723.75305,358.12213,723.7514"/>
</g>
<g style="fill:url(#grad1); fill-opacity:1.0; stroke-linejoin: miter">
<path d="M360.00397,723.8233L359.93634,723.8272Q359.40173,723.8506,359.38684,723.85956Q359.25616,723.8703,359.0901,723.93097Q358.94287,723.9904,358.80673,724.088Q358.76474,724.11633,358.67615,724.1866Q358.42114,724.40894,358.39066,724.42084Q358.2983,724.4818,358.17618,724.52Q357.86597,724.60944,357.62067,724.51013Q357.35007,724.3811,357.2173,724.1454Q357.10574,723.89197,357.14615,723.62897Q357.17502,723.3832,357.38458,723.18207Q357.59253,722.9921,357.8466,722.97675Q358.051,722.9592,358.32922,723.09Q358.39288,723.1193,358.53076,723.21295L358.9204,723.50385Q359.0183,723.5709,359.14636,723.613Q359.32635,723.6852,360.00415,723.6787L360.00397,723.8233"/>
</g>
<g style="fill:url(#grad1); fill-opacity:1.0; stroke-linejoin: miter">
<path d="M360.0042,723.8233L360.07184,723.8272Q360.60645,723.8506,360.62134,723.85956Q360.752,723.8703,360.9181,723.93097Q361.0653,723.9904,361.20145,724.088Q361.24344,724.11633,361.33203,724.1866Q361.58704,724.40894,361.61752,724.42084Q361.70987,724.4818,361.832,724.52Q362.1422,724.60944,362.3875,724.51013Q362.6581,724.3811,362.7909,724.1454Q362.90244,723.89197,362.86203,723.62897Q362.83316,723.3832,362.6236,723.18207Q362.41565,722.9921,362.1616,722.97675Q361.95718,722.9592,361.67896,723.09Q361.6153,723.1193,361.47742,723.21295L361.08777,723.50385Q360.98987,723.5709,360.86182,723.613Q360.68182,723.6852,360.00403,723.6787L360.0042,723.8233"/>
</g>
<g style="fill:rgb(0,0,0); fill-opacity:1.0; stroke-linejoin: miter">
</g>
<g style="fill:rgb(0,0,0); fill-opacity:1.0; stroke-linejoin: miter">
</g>
<g style="fill:url(#grad1); fill-opacity:1.0; stroke-linejoin: miter">
<path d="M360.00406,723.7151L360.00388,723.7692L360.00366,723.8233L360.00397,723.8243Q360.00403,723.7753,360.0041,723.7273L360.00406,723.7151 Z"/>
</g>
<g style="fill:url(#grad2); fill-opacity:1.0; stroke-linejoin: miter">
<path d="M362.1122,722.9747L362.06976,722.97614Q361.91306,722.97943,361.647,723.1062Q361.56,723.15564,361.47745,723.2128L361.06567,723.5185Q360.9757,723.5756,360.86185,723.6129Q360.6637,723.6865,360.00424,723.6787L360.0042,723.8233Q360.5922,723.8512,360.58908,723.85486Q360.75366,723.87146,360.88162,723.918Q361.00366,723.9572,361.17108,724.06683Q361.29245,724.14514,361.57227,724.38947Q361.58865,724.40686,361.6824,724.4589Q361.8801,724.56323,362.1437,724.5617Q362.2727,724.5565,362.38754,724.51013Q362.5679,724.42413,362.68704,724.2908Q362.76892,724.20325,362.8138,724.089Q362.87695,723.9192,362.8725,723.7453Q362.8702,723.56744,362.8007,723.4193Q362.7035,723.2466,362.62363,723.18207Q362.38867,722.9715,362.1122,722.9747 Z"/>
</g>
<g style="fill:rgb(0,0,0); fill-opacity:1.0; stroke-linejoin: miter">
</g>
<g style="fill:rgb(0,0,0); fill-opacity:1.0; stroke-linejoin: miter">
</g>
<g style="fill:rgb(0,0,0); fill-opacity:1.0; stroke-linejoin: miter">
</g>
<g style="fill:rgb(0,0,0); fill-opacity:1.0; stroke-linejoin: miter">
</g>
<g style="fill:rgb(0,0,0); fill-opacity:1.0; stroke-linejoin: miter">
</g>
<g style="fill:rgb(0,0,0); fill-opacity:1.0; stroke-linejoin: miter">
</g>
<g style="fill:rgb(64,54,39); fill-opacity:1.0; stroke-linejoin: miter">
</g>
<g style="fill:rgb(64,54,39); fill-opacity:1.0; stroke-linejoin: miter">
</g>
<g style="fill:rgb(64,54,39); fill-opacity:1.0; stroke-linejoin: miter">
</g>
<g style="fill:rgb(64,54,39); fill-opacity:1.0; stroke-linejoin: miter">
</g>
</g>
<defs>
<radialGradient id="grad0" gradientUnits="userSpaceOnUse" cx="357.38382" cy="726.18585" r="14.321114" >
<stop offset="0.0%" style="stop-color:rgb(216,207,83); stop-opacity:1.0" />
<stop offset="29.856115%" style="stop-color:rgb(194,151,83); stop-opacity:1.0" />
<stop offset="52.110355%" style="stop-color:rgb(136,82,49); stop-opacity:1.0" />
<stop offset="70.863304%" style="stop-color:rgb(196,142,81); stop-opacity:1.0" />
<stop offset="100.0%" style="stop-color:rgb(135,79,48); stop-opacity:1.0" />
</radialGradient>
<radialGradient id="grad2" gradientUnits="userSpaceOnUse" cx="362.1691" cy="723.737" r="4.210205" >
<stop offset="0.0%" style="stop-color:rgb(74,174,77); stop-opacity:1.0" />
<stop offset="29.856115%" style="stop-color:rgb(0,150,135); stop-opacity:1.0" />
<stop offset="52.110355%" style="stop-color:rgb(103,57,182); stop-opacity:1.0" />
<stop offset="70.863304%" style="stop-color:rgb(139,195,73); stop-opacity:1.0" />
<stop offset="100.0%" style="stop-color:rgb(0,150,135); stop-opacity:1.0" />
</radialGradient>
<radialGradient id="grad1" gradientUnits="userSpaceOnUse" cx="357.82028" cy="723.78424" r="4.1221313" >
<stop offset="0.0%" style="stop-color:rgb(32,150,241); stop-opacity:1.0" />
<stop offset="29.856115%" style="stop-color:rgb(63,80,181); stop-opacity:1.0" />
<stop offset="52.110355%" style="stop-color:rgb(103,57,182); stop-opacity:1.0" />
<stop offset="70.863304%" style="stop-color:rgb(139,195,73); stop-opacity:1.0" />
<stop offset="100.0%" style="stop-color:rgb(0,150,135); stop-opacity:1.0" />
</radialGradient>
</defs>
</svg>